# xmcd CD database file
#
# Track frame offsets:
#	150
#	18876
#	40082
#	60976
#	84103
#	105973
#	121703
#	142970
#	166691
#	188926
#	208593
#	228300
#
# Disc length: 3375 seconds
#
# Revision: 0
# Processed by: cddbd v1.5.2PL0 Copyright (c) Steve Scherf et al.
# Submitted via: CDex 1.51
#
DISCID=800d2d0c
DTITLE=Linton J. Smith, Jr. - Friend
DYEAR=2005
DGENRE=Jazz
TTITLE0=Adore
TTITLE1=I Surrender All
TTITLE2=Old Rugged Cross
TTITLE3=There's Something About That Name
TTITLE4=Crimson Stream of Blood
TTITLE5=Nearer My God to Thee
TTITLE6=Jesus Will Be Your Friend
TTITLE7=My Everything
TTITLE8=El Shaddai
TTITLE9=Lord I Die to Me
TTITLE10=I Love the Lord
TTITLE11=Still I Rise
EXTD=YEAR: 2005
EXTT0=
EXTT1=
EXTT2=
EXTT3=
EXTT4=
EXTT5=
EXTT6=
EXTT7=
EXTT8=
EXTT9=
EXTT10=
EXTT11=
PLAYORDER=
